<svg xmlns="http://www.w3.org/2000/svg" width="800" height="1200" viewBox="0 0 800 1200"><rect width="800" height="1200" fill="#e5eddb"/><path d="M0 800Q300 1020 800 695V1200H0" fill="#b8cd9b"/><text x="65" y="93" font-family="Arial,sans-serif" font-size="29" font-weight="700" letter-spacing="7" fill="#344e32">ORCHARD</text><text x="62" y="248" font-family="Georgia,serif" font-size="105" fill="#2f492e">Fresh for</text><text x="62" y="364" font-family="Georgia,serif" font-size="105" fill="#2f492e">your day.</text><circle cx="532" cy="728" r="180" fill="#f3ae49"/><circle cx="532" cy="728" r="154" fill="#ffe8a7"/><g fill="#ef9c38" stroke="#ffe8a7" stroke-width="8"><path d="M532 728V584a144 144 0 0 1 124 72z"/><path d="M532 728l124-72a144 144 0 0 1 0 144z"/><path d="M532 728l124 72a144 144 0 0 1-124 72z"/><path d="M532 728v144a144 144 0 0 1-124-72z"/><path d="M532 728l-124 72a144 144 0 0 1 0-144z"/><path d="M532 728l-124-72a144 144 0 0 1 124-72z"/></g><rect x="176" y="559" width="180" height="357" rx="55" fill="#faf8de" transform="rotate(-10 266 738)"/><rect x="187" y="643" width="171" height="164" rx="5" fill="#71854b" transform="rotate(-10 266 738)"/><text x="211" y="716" font-family="Arial,sans-serif" font-size="23" font-weight="700" fill="#fff" transform="rotate(-10 266 738)">ORCHARD</text><text x="223" y="752" font-family="Arial,sans-serif" font-size="17" fill="#e6edca" transform="rotate(-10 266 738)">ORANGE</text><path d="M472 528q-35-143 120-120-16 92-120 120" fill="#4f723f"/><text x="65" y="1082" font-family="Arial,sans-serif" font-size="38" fill="#30482d">A bright little pick-me-up.</text><text x="65" y="1136" font-family="Arial,sans-serif" font-size="24" letter-spacing="2" fill="#506448">GOOD THINGS GROW HERE</text></svg>
